<svg xmlns="http://www.w3.org/2000/svg" viewBox="0 0 20 20">
  <defs>
    <style>
      .cls-1 {
        fill: none;
      }

      .cls-2 {
        fill: #c3c3c3;
      }
    </style>
  </defs>
  <title>eye</title>
  <g id="frame">
    <rect class="cls-1" width="20" height="20"/>
  </g>
  <g id="visible">
    <path class="cls-2" d="M18.44,7.73a11,11,0,0,0-16.88,0L.27,9.27a1.12,1.12,0,0,0,0,1.46l1.29,1.54a11,11,0,0,0,16.88,0l1.29-1.54a1.12,1.12,0,0,0,0-1.46ZM10,14a4,4,0,1,1,4-4A4,4,0,0,1,10,14Zm2-4.35A1.63,1.63,0,0,1,12,10a2,2,0,1,1-2-2,1.63,1.63,0,0,1,.31,0A2,2,0,0,0,12,9.69Z"/>
  </g>
</svg>
